PathFileType	4	(X/Y/Z)	Patient4_TMGait_0pt7_02_right_13.trc.trc
DataRate	CameraRate	NumFrames	NumMarkers	Units	OrigDataRate	OrigDataStartFrame	OrigNumFrames
85.365853658537	85.365853658537	6	33	mm	85.365853658537	106	       141
Frame#	Time	Sacral			L.Shoulder			Chest			R.Shoulder			Neck			R.ASIS			L.ASIS			R.Thigh.Superior			R.Thigh.Lateral			R.Thigh.Inferior			R.Patella			L.Thigh.Superior			L.Thigh.Lateral			L.Thigh.Inferior			L.Patella			L.Shank.Superior			L.Shank.Lateral			L.Shank.Inferior			R.Shank.Superior			R.Shank.Lateral			R.Shank.Inferior			R.Heel			R.Midfoot.Superior			R.Midfoot.Lateral			R.Toe			L.Heel			L.Midfoot.Lateral			L.Midfoot.Superior			L.Toe			L.Elbow			L.Wrist			R.Elbow			R.Wrist			
		X1	Y1	Z1	X2	Y2	Z2	X3	Y3	Z3	X4	Y4	Z4	X5	Y5	Z5	X6	Y6	Z6	X7	Y7	Z7	X8	Y8	Z8	X9	Y9	Z9	X10	Y10	Z10	X11	Y11	Z11	X12	Y12	Z12	X13	Y13	Z13	X14	Y14	Z14	X15	Y15	Z15	X16	Y16	Z16	X17	Y17	Z17	X18	Y18	Z18	X19	Y19	Z19	X20	Y20	Z20	X21	Y21	Z21	X22	Y22	Z22	X23	Y23	Z23	X24	Y24	Z24	X25	Y25	Z25	X26	Y26	Z26	X27	Y27	Z27	X28	Y28	Z28	X29	Y29	Z29	X30	Y30	Z30	X31	Y31	Z31	X32	Y32	Z32	X33	Y33	Z33	

106	15.190000000000	755.445853817368	1018.810845176383	417.000039610134	966.339540935320	1437.634584919844	238.976802863558	1059.606446186342	1361.055553014744	403.622974733678	975.105730634788	1443.567256660245	573.169931078355	965.308991734565	1498.402947125150	392.383322873730	975.412559506186	949.496435943957	544.248545719199	973.332877814075	963.964249992169	269.757974726505	1063.235365955267	790.113524961851	520.361429258546	1027.230703034051	668.945247660804	596.630129484469	1122.780074327793	632.616790530464	522.672732484291	1146.803482510242	520.815987579088	548.167978644545	1011.283614401953	751.320691612222	298.743421361155	914.781874041198	640.279028616742	241.377976095241	993.404748876869	558.386587377858	305.480419069094	989.698074668764	489.995827790346	316.942889328660	962.911334109722	419.868954364818	309.633197648300	872.050417139913	305.805443972050	261.590212480123	921.840991519325	195.340918415316	334.582289577705	1074.079378755579	442.453384479015	554.114018337275	952.124716321935	397.561427733280	609.357659322170	947.475582196231	285.907310380617	563.576804664781	753.045344046377	215.899642206794	528.855358348606	921.786337648848	160.086437561093	575.699374126626	810.051931048427	155.108937579317	602.856253708819	986.537825626633	46.863241501815	600.133595786451	791.171353894553	40.377361487009	381.819830973918	864.695175595453	35.834992087020	300.969640670826	948.813819539735	96.297874353284	325.897528490846	1076.799447706372	40.476638917060	297.202709711129	996.284270723426	1100.150857586927	96.594556120805	1200.295386968150	938.152486657760	122.804165757027	933.397541411665	1096.298885151020	693.219096534600	1072.922960629208	877.421176377064	672.100731085660	
107	15.201714285714	754.263138826568	1019.163760907745	415.788388159707	967.844863023321	1437.787815935936	238.752806897733	1059.253508463500	1361.003365505812	404.300035097266	973.323207294428	1443.759336799600	572.971812721155	965.145490455322	1498.509846730944	392.144010607281	973.685007506330	950.105601099697	544.514217073023	972.916986187179	964.028635885640	269.853499844278	1063.218454565486	793.424478794396	520.408536935225	1029.608862387599	671.662584568434	596.727092430770	1125.261095279467	636.647078688553	522.487397743104	1151.769379179775	526.237670907670	548.249238281351	1008.018987481168	750.346262972053	299.253871328329	910.365786008298	640.370912659021	241.045031818909	987.477309346422	557.559934493227	305.435206341335	982.743871326568	489.426899497935	316.905442908792	955.952676133139	419.619248965837	309.456448616839	864.724533319981	305.882414743912	261.282997669134	913.998265531433	195.278330227917	334.440410557134	1082.476562706049	445.510530765564	554.568153839003	963.454758504269	394.637143040740	610.754744446185	964.058231141646	282.811135540986	564.964079577917	773.162914174560	203.042925548811	531.709380364828	944.951071328195	155.994951750678	577.646421725706	833.648492928812	145.229225958391	605.257877069302	1015.353212912575	46.026580677153	601.415635160072	782.877207128818	40.446545566633	381.737370531877	856.437373214207	35.821499793789	300.928814490805	940.574098044585	96.291229080472	325.805581690895	1068.543972458136	40.432617226094	297.180232452508	1003.765689072760	1102.548685593144	94.439353593335	1215.050895273403	951.126157700600	123.882547014928	925.967796482862	1097.392402573895	694.055812399630	1048.276564324902	867.095807472129	679.611855153052	
108	15.213428571429	753.186061826596	1019.384557956611	414.798825039286	969.267756911977	1437.803433662973	238.679128041121	1058.934793274125	1360.825351304037	405.049887786323	971.680741277435	1443.804961981961	572.907082172860	964.993504882194	1498.482333230421	392.040541496293	972.080777475618	950.462125403108	544.844837848702	972.554444531119	963.996844945136	270.027054115183	1062.871120903767	796.042047755123	520.504134550311	1031.278636677352	673.788539219181	596.870267786206	1126.831123378509	639.798317900078	522.307728219360	1155.570572356538	531.027814285327	548.326694545541	1004.781802703366	749.284731995602	299.756299644233	905.864105972893	640.414562078505	240.779426038433	981.443078394081	556.678710916757	305.414055240091	975.700176996902	488.849627229417	316.887141572077	948.907795450556	419.347805551611	309.317974151402	857.323568298746	305.923194578664	261.005450135254	906.110356221903	195.191332479727	334.338355111293	1090.034891796750	448.107397204689	555.126242244101	974.596612129759	391.035511280821	612.461043552596	980.808917505580	279.328670551532	566.676622864368	794.367181146021	189.270462114977	535.069943497957	968.794735733908	151.794133162606	580.010824204920	858.362900581726	134.990032789078	608.210269877189	1045.040178506046	45.755063268980	603.328127263107	774.588677297472	40.485614640372	381.668712892899	848.167031519877	35.795434255802	300.897287645790	932.314885179579	96.273601652381	325.742977208427	1060.276618632670	40.402780341014	297.171839042287	1010.720593218868	1104.895408609353	92.519426495773	1228.688898530462	964.485500325858	125.263548927364	918.475939659427	1098.506174735914	694.871493918758	1023.396858434807	858.681364029613	686.523250817145	
109	15.225142857143	752.241604081021	1019.461527285580	414.034911443083	970.569458387949	1437.675992600765	238.761688267617	1058.649927245260	1360.518110617093	405.863613230853	970.197378768557	1443.693595673805	572.984293427809	964.854073191384	1498.313770073271	392.078656349804	970.629190622980	950.543961151392	545.226186505931	972.246206797470	963.872694029066	270.265442466259	1062.195259675842	797.862430367747	520.630813274880	1032.173437060323	675.231956318796	597.073744832693	1127.458354414072	641.960548865506	522.171323890226	1158.164108623746	535.068580027109	548.412455438881	1001.581497644793	748.125715172180	300.223648423065	901.262367446869	640.417335822283	240.574294195996	975.285419465661	555.743111297127	305.406833849918	968.559795935629	488.263627101046	316.870828715508	941.753255203576	419.059190632974	309.207321480601	849.825266050817	305.928916979585	260.753070763661	898.166923716157	195.081947976359	334.271737582974	1096.686113908611	450.201601350328	555.786654667675	985.500525713932	386.824783368383	614.439278921709	997.627013487575	275.586434557787	568.660143158267	816.659748149199	174.828111415177	538.803418330100	993.163489363852	147.693559594975	582.710795151129	884.095478477101	124.658147367987	611.606844575178	1075.349600876019	46.332673192917	605.816221899921	766.304930974081	40.493079676755	381.613254370371	839.881957098418	35.756501143074	300.874896875373	924.033791602122	96.244821657953	325.707946035043	1051.993954813990	40.389473846408	297.177089370522	1017.152194934797	1107.152797264270	90.828646351979	1241.156491530310	978.130040315766	126.905317211637	910.865531828346	1099.655957504128	695.656781117862	998.655712073090	852.192280413220	692.691467950404	
110	15.236857142857	751.458168182231	1019.381180742772	413.497625734000	971.715119490476	1437.403052606371	239.003217402844	1058.397999737598	1360.081887365273	406.731957656503	968.887235674548	1443.419609958442	573.207307906893	964.724572611611	1497.998170866153	392.262849958921	969.366219307449	950.339346713169	545.651324762679	972.001171314935	963.654779184837	270.561165267255	1061.201389402210	798.798917584143	520.787773962254	1032.244850912700	675.920076229881	597.364120529822	1127.131653946509	643.050264589681	522.121930301341	1159.536357331522	538.261787602167	548.523863394138	998.420013130038	746.863316688377	300.647168683076	896.552820183747	640.389223804324	240.421965888308	968.993119241699	554.758593435614	305.404249716226	961.318366287657	487.668784150602	316.836848954204	934.467521917153	418.761729786783	309.110381521694	842.208763122417	305.905297064994	260.520069482322	890.159319117462	194.955588350838	334.231772914577	1102.377444405959	451.759663176684	556.546055077472	996.096718082097	382.082040127957	616.636692553097	1014.381454678294	271.709259794520	570.841710477469	839.971142242303	159.983422580938	542.743596522644	1017.858436426994	143.886932158534	585.644916574386	910.674819976871	114.483886863478	615.303852735159	1105.976862002255	47.980006008150	608.781671419326	758.023749532770	40.470679527182	381.570690863769	831.581259657136	35.705589745334	300.861376029167	915.730965144399	96.205991546793	325.695837009626	1043.693808215745	40.393898311565	297.195046171226	1023.064328410999	1109.288140513418	89.360082010447	1252.412018463212	991.949583759961	128.765180360944	903.092818133604	1100.869139651624	696.419359248900	974.392842850785	847.564990869823	698.023972747306	
111	15.248571428571	750.862601742891	1019.126397843992	413.186666398440	972.674707929408	1436.983170887332	239.403045800709	1058.176484785195	1359.519549254058	407.646287507045	967.756936991948	1442.981341957727	573.575443313479	964.597255356244	1497.529315202934	392.595357721344	968.330819412777	949.843993251788	546.119596587895	971.836571336106	963.337268814784	270.913078717607	1059.911762655310	798.789040385914	520.989058254972	1031.475188495487	675.804415978109	597.778211947928	1125.868521275488	643.017503255535	522.203004964548	1159.708117335628	540.533876303426	548.680990019244	995.295446118909	745.496366725644	301.034680502899	891.740078270682	640.340493640901	240.314602013705	962.567780304472	553.734535384336	305.398816881857	953.981341793882	487.064224180363	316.765803926051	927.039431019432	418.465049887333	309.011566523087	834.461285741635	305.861885600559	260.300319163591	882.084007280115	194.819690021520	334.206407659855	1107.075084152439	452.756370515191	557.398057382669	1006.289127711425	376.891042346868	618.980910992574	1030.903167670921	267.812063899988	573.130652478185	864.133476866494	145.024233266685	546.694286246851	1042.619387233674	140.533279198160	588.692133777316	937.834591213350	104.690538008540	619.121759068563	1136.546091864141	50.822057251798	612.088869085052	749.742196784358	40.423035206622	381.541167740430	823.265678493658	35.644685502962	300.856283534539	907.409372190478	96.159230339652	325.699964163038	1035.375823945338	40.415998448658	297.224302394958	1028.458573557193	1111.271931013492	88.106190707676	1262.426883454061	1005.824037095576	130.800271571784	895.131104606269	1102.180894988061	697.180209056074	950.892442161812	844.665952962090	702.487775203963	
